<?xml version="1.0" standalone="no"?>
<!DOCTYPE svg PUBLIC "-//W3C//DTD SVG 20010904//EN"
 "http://www.w3.org/TR/2001/REC-SVG-20010904/DTD/svg10.dtd">
<svg version="1.0" xmlns="http://www.w3.org/2000/svg"
 width="512.000000pt" height="512.000000pt" viewBox="0 0 512.000000 512.000000"
 preserveAspectRatio="xMidYMid meet">
<metadata>
Created by potrace 1.11, written by Peter Selinger 2001-2013
</metadata>
<g transform="translate(0.000000,512.000000) scale(0.100000,-0.100000)"
fill="#000000" stroke="none">
<path d="M2375 4788 c-7 -4 -30 -7 -51 -7 -22 0 -57 -2 -79 -5 -22 -3 -49 -7
-60 -9 -11 -1 -25 -5 -32 -10 -6 -4 -18 -4 -26 -1 -8 3 -18 0 -22 -6 -4 -6
-15 -8 -25 -5 -10 3 -21 1 -24 -4 -4 -6 -13 -8 -20 -5 -8 3 -17 1 -20 -5 -4
-6 -13 -8 -20 -5 -8 3 -17 0 -21 -5 -3 -6 -10 -9 -15 -6 -5 3 -57 -11 -116
-31 -781 -261 -1361 -924 -1518 -1733 -130 -669 52 -1367 492 -1891 625 -745
1657 -1013 2558 -665 1138 440 1732 1694 1348 2844 -114 340 -297 634 -554
891 -257 258 -559 445 -898 556 -74 25 -137 42 -140 39 -3 -2 -11 0 -18 5 -6
6 -28 12 -46 14 -19 2 -40 6 -47 10 -6 4 -16 4 -21 1 -6 -4 -17 -1 -25 5 -8 6
-23 9 -34 5 -10 -3 -22 -1 -26 5 -4 7 -18 9 -32 6 -13 -4 -29 -3 -36 1 -14 9
-37 11 -275 15 -101 2 -189 0 -197 -4z m515 -33 c997 -151 1768 -951 1880
-1950 15 -135 12 -397 -6 -537 -60 -466 -272 -906 -603 -1250 -303 -316 -709
-542 -1137 -632 -163 -34 -286 -46 -468 -46 -1035 0 -1935 721 -2160 1732 -40
182 -51 281 -50 488 0 497 145 935 440 1331 89 119 260 298 369 386 337 272
764 449 1185 492 128 13 421 6 550 -14z"/>
<path d="M2394 4479 c-435 -39 -866 -238 -1180 -546 -549 -538 -728 -1364
-449 -2073 120 -305 309 -568 559 -777 879 -738 2197 -553 2836 398 33 48 60
90 60 93 0 3 15 31 34 63 45 77 119 251 150 354 211 696 16 1452 -505 1954
-160 154 -300 251 -504 350 -216 105 -431 163 -685 185 -129 11 -184 11 -316
-1z m236 -973 c349 -69 562 -219 680 -480 120 -265 116 -683 -10 -941 -122
-249 -328 -396 -660 -470 -157 -35 -657 -30 -843 8 l-57 12 -1 925 -1 925 74
13 c204 35 658 39 818 8z"/>
<path d="M2168 3164 c-5 -4 -8 -279 -8 -611 l0 -603 139 0 c169 0 270 18 369
65 140 66 242 204 278 375 24 112 15 319 -19 422 -57 177 -169 284 -352 334
-64 18 -394 33 -407 18z"/>
</g>
</svg>
